<?xml version="1.0" encoding="UTF-8"?>
<svg id="_レイヤー_1" xmlns="http://www.w3.org/2000/svg" version="1.1" viewBox="0 0 1012.7 219">
  <!-- Generator: Adobe Illustrator 29.3.1, SVG Export Plug-In . SVG Version: 2.1.0 Build 151)  -->
  <defs>
    <style>
      .st0 {
        fill: #0f141a;
      }
    </style>
  </defs>
  <g>
    <path class="st0" d="M41.6,57.1c3.5-.9,7.4-.3,11.1-.4,3.4.1,7.1.2,10.1,1.3,2.4.7,4.3,2.1,5.9,4,4.3,3.8,2.8,10.2-.3,14.3-2.1,2.7-6,3.4-9.1,4.6-2.1.6-3.6,1.5-5.5,2.3-2.1.8-4.2,1.8-6,3.2-2.9,2.4-6.2,2.9-6.2,6.3s.7,4.3.1,6.2c-.6,2.4-3.4,3.7-4.4,5.8-1.2,3.4,4.2,2,6,1.7,3.3-.6,7.1.4,9.9,2.4,4.2,2.5,5,6.9,4.6,11.3-.1,3.6,0,7.1.2,10.6.2,3.3.4,6.7-.4,10-1.1,4.4-2.3,8.7-3.3,13-1.7,7.6-6.3,13.4-13.6,16.1-4.1,1.7-8.6.4-12.8-.9-4.8-1.5-9.6-1.8-13.1-5.7-3.1-3-4.6-6.4-7.4-9.7-1.9-2.3-4.4-4.3-5.9-6.7-4.1-5.6.9-10.8,4.7-14.8,2.7-3,4.2-6.8,6.5-9.9,2.8-3.4,5.9-6.7,8.6-10.2,2.7-3.7,5-7.8,8.1-11.3,5.7-6.1-1.3-6-5.4-8.5-2.4-1.8-3.3-4.8-5.2-7.1-3.2-4.2-6.6-9-7-14.6-.1-3-.3-6.6,1.6-8.7,2.5-2.3,5.6,1.6,6.3,4,1.2,3.3,2.3,6.5,4.2,9.5,2.4,4.8,9.2,8.3,13.3,3.6,1.5-1.9,8.5-7.2,7.2-9.5-1.8-2-6.6-1.6-9.5-.7-1.6.4-3.9,2.1-4.4,1.7-.9-1-.4-3.2,0-4.6,1.4-4.7,6.3-7.4,10.6-8.9h0l.5.3ZM40.8,110.1c-2.7-1.1-5.7.5-8.1,2.1-1.9,1.2-3.6,2.4-5.1,4.2-1.9,2.5-3.5,5.4-5.7,7.8-2.9,3.3-5.5,7-7.9,10.5-1.6,2.3-3.3,4.4-5.7,5.8-1.2.7-2.7,1.5-3.7,2.3-2,1.6,1.9,3.2,3.2,3.8,2.1.9,4.2,2.3,6.2,3.4,2.2,1.3,3.8,3,5.7,4.4,1.1.8,2.4,1.6,3.7,2.3,4.7,2.6,7.6.5,11-2.9,3.5-3.4,6.3-8.3,7.6-13.1.5-2.1.3-4,1-6.2.3-1.2.8-2.4,1.1-3.5.4-1.6.7-3.1,1.1-4.7.8-3.2,2.1-6.3,1.3-9.5-.8-2.7-3.1-5.5-5.6-6.5h0v-.2Z"/>
    <path class="st0" d="M120.5,66.1c-.5,2.1-1.1,4.2-1.4,6.3-.5,4-.3,8.3-.4,12.4-.3,11.2-.1,23.1,1.7,34.1,1,6.9,2.4,13.6,3.5,20.4.6,4.5.4,9,.3,13.6.1,3.5-.4,6.9-.9,10.3-.2,2.8-1.1,5.5-3.9,6.7-6.1,2.4-13,3.3-19.6,2.7-4.5-.3-9.1-2.3-10.9-6.7-1.4-3.6-1.7-7.8-4.8-10.5-2.2-2-4.9-3.2-7.4-4.9-1.9-1.6-14.3-6.6-10.4-9.6,2.9-1.5,7.7,1.4,10.6,2.9,2.4,1.3,4.9,2.3,7.4,3.3,4.9,1.4,10.3,5.6,15.4,4.8,2.7-.8,4.3-3.2,6-5.4,2.8-3,4.1-7,5.1-10.9,2.1-8.2-2.1-12-2.9-19.1-.1-2.1.1-4.7.3-7,.2-2.4,0-4.8.1-7.1.2-3.2,1.1-6.4,1.4-9.6.6-4.3.4-8.4.6-12.9,0-3.1.4-6.8.3-9.7-.6-5.1-6.1-3-1.8-10.4,1.6-2.6,3.9-4.7,6.9-5,5.6-.1,5.8,7.3,4.6,11.4h.2Z"/>
    <path class="st0" d="M103.3,78.9c-2,4.8-2.7,15.4-5.4,19.5-.5.8-1.2,1.7-1.8,2.5-1.1,1.3-3.1,1.2-4-.2-.5-.8-.9-1.6-1.1-2.6-2.6-8.8-1.7-18.5-4.9-27.1-.8-2.2-1.8-6.4-4.3-6.7h0c-2.8.9-2.1,9.5-2.7,12.2-.5,3.9-1.6,7.7-1.9,11.5-.2,2.3,0,4.5-.4,6.9-.3,2.3-.6,4.7-.9,7-.3,3,.3,6,.5,9v.3c0,.6,0,1.2-.2,1.7-.2.6-.7,1.1-1.2,1.4-1.5.8-3.4.9-1.6,3.1,5,6.1,15.4,6,21.2,1.5,1-.9,1.8-1.9,2.4-3.1h0c2.4-3.1,3.1-15.3,4.6-22.6s3.9-19,1.8-14.2h-.1Z"/>
  </g>
  <g>
    <path class="st0" d="M257.1,56.5c1.7,1.6,2,4.1,1.5,6.3-.2,1.4-.8,3-.2,4.4,1.5,2.3,6.1.6,8.6.2,4.2-.6,8.3-1.3,12.2-2.9,4.8-1.9,10.8-4.1,15.8-1.6,2.8,1.3,4.4,4,6,6.4,3,4.4,2,7.1-3.6,7.8-3.2.2-6.5,0-9.7-.1-4.1-.3-8.6-2-12.6-2.3-2,0-3.9.6-5.8,1.1-2.3.6-4.9,1.2-7.3,1.9-5.7,1.4-11.2,4.3-16.8,6.3-3.1,1.2-5.9,2.1-8.9,2.9-3,.9-8.8,3-8.3,6.8.9,1.8,3.8.9,5.5.4,2.6-.9,5.1-2.8,7.4-3.3,5-1.4,9.6,1.2,11.4,6,1.6,3.5,1.2,6.9-1.4,9.6-2.1,2.3-10.3,6.8-12.3,9.5-1.4,1.7,4,2.1,3.7,4.1-.2,1.2-.8,2.3-1.7,3.1-.9.8-2.1,1.4-2.9,2.2-1.4,1.3-1.6,3.8-2.5,5.6-1.4,2.8-4.8,6.4-2,9.4,1.1,1.2,3.2,1.8,5,2.6,2,.9,3.8,2,5.5,3.4,1.5,1.3,3.2,2.6,4.9,3.8,2.8,1.9,5.6,2.5,8.6,3.5,3.4.8,7,1.6,10.5,1.9,3,0,5.9.2,8.7.8,4.2.9,8.5,3.1,12.7,4.1,3.4.8,6.8,0,10.5.2,4.9.1,9.8.5,14.6.1,4.7-.4,9.6-2.3,13-5.3,1.9-1.6,3.8-4.9,5.8-5.8.9-.3,1.8.6,2.1,2,.3,2.4-.6,4.9-1.9,6.9-2.1,3.9-5,6.8-8.9,9-4.5,2.5-9.5,5-14.1,7.5-4.9,2.5-10.5,3.7-16,3.8-2.7.1-5.4.2-7.9-.5-4.6-1.3-9.3-3.1-13.8-4.9-3.6-1.4-7.4-2.8-10.6-4.5-4.8-2.6-9-6.7-13.6-9.6-2-1.4-4.2-2.5-6.3-4-5.1-3.2-8.8-8.3-14.2-10.8-1-.5-2.6-.9-3.1-.3-1.2,1.5-1.4,3.6-2.8,5.3-1.4,1.7-3.3,3.3-5.1,4.8-4.2,3.2-7.7,6.1-12.5,8.2-3,1.2-6.4,1.6-9.4.5-2.9-1-4.7-3.9-7.3-5.3-3-1.5-6,1-9,2-3.8,1.5-7.9,2.9-11.9,3.4-2.7.1-6.1.5-8.2-1.2-1.4-1.5-2.2-3.7-1.6-5.8.7-3.1,4.7-4.1,7.4-3.3,2.5,1.2,4,3.6,7.1,3.3,1.8,0,3.6-.9,5.3-1.5,3.2-1.3,5.6-4.3,7.5-7.3,3.3-5.9,6.1-12.2,9.9-17.8,3.6-4.8,6.3-9.1,9.5-14.1,2-3.3,3.5-6.8,5.5-10.1,1.6-3.4,5.1-6.4,5.3-10.3,0-2-1.5-3.5-3.4-3.8-2.2-.3-4.7.2-6-1.9-1.2-1.5-2.9-3.6-3.3-5.5-.2-2.6,2.8-4,4.8-4.9,7.2-2.5,15.1-.7,22.5-1.3,3.3-.3,6.1-1.9,9.2-3,3.8-1.7,4.1-7,3.2-10.7-1.8-5.1-1-8.6,5.1-9.5,3.6-.5,8.1-.4,10.9,2.1h-.3ZM234.4,105.6c-1.5-.7-3.3.3-4.9.8-2,.7-4,1.1-6.2,1.3-6,.2-9.4,1-12.6,6.2-1.3,1.6-2.6,3.1-4.1,4.5-1,.9-2,1.8-2.6,2.9-2.2,5.7,9.4,6.2,12.4,9,2.8,1.8,3.4,6.3-1.2,4.9-2.3-1-5.3-2-7.7-3.2-4.2-2.3-8.2-2.1-11.3,1.8-1.6,1.9-2.1,3.9-3.2,6.3-1.2,3.4-3.6,7-3.4,10.8.2,3.6,2.8,6.9,6.4,7.5,2.9.5,5.7-.7,8.2-2.1,4.7-2.7,9.8-5.3,13.8-9,1.6-1.5,4-3.2,4-5.6-.3-2.7-2.4-5.2,1.8-5.7,2.2-.3,4.6-.2,6.2-1.9,2.5-3.2,6.6-8,2.7-11.9-1.5-1.6-9.7-3.1-8.7-5.7,1.2-2.6,8.7,1.4,11-7.7.3-1.1.4-2.5-.6-3.2h0Z"/>
    <path class="st0" d="M286.6,88c1.7,1.5.9,4-1.4,4.3-1.8.2-3.9.8-4.5,2.8-.9,2.3-1.5,5.9.4,7.8,1.9,1.4,5.1,0,7.4-.1,4.6-.9,7.2.3,10.1,3.7,3.6,4.1,1.2,6.2-3.7,6.1-2.3-.1-4.8-1.5-7-1.4-3.4-.2-6.8,2.1-7.4,5.8-.2,3.1-1.1,8.2,1.4,10.4,1.5,1.3,3.9,1.4,5.9,1.6,3.8.7,7.3-.2,11-1,1.8-.4,3.6-.2,5.3.3,3.2,1,5.1,3.4,6.1,6.4.6,2,.1,4-1.3,5.5-1.6,1.9-3.3,3.5-5.4,4.6-1.7,1-3.8,1.1-5.7,1.2-2,.2-3.8.7-5.5,1.6-1.4.7-12.3,5.5-12.6,3.1.1-1.1,1.1-2,1.9-2.7,1.2-1.1,2.5-2.1,3.2-3.5,1.2-1.9.4-4.1-1.7-4.9-3-1.1-5.9,1.6-8.5,2.8-3.2,1.5-7.4.6-11.3.5-4.4-.2-10.4-.1-12.6-4.6-1.1-2.2-.9-5.6,2-6.2,1.5-.5,3.6-.2,5.7-.4,2.6-.2,5.2-.7,7.3-1.8,1.6-.8,3.9-1.6,4.7-3.1.4-.9.3-1.9.1-2.9-.2-1.6-.7-3.6-1.4-4.9-1.1-1.9-3-1.2-5.2-1-2.7.3-6-.4-7.6-2.3-2-2.2-3.3-5.6-1.9-8.4,2.2-3.8,7.5-5.4,10.8-7.9,4.9-3.1,8.3-7.7,13.6-10.4,2.3-1.2,5.6-2.8,7.8-1.2h0v.2ZM265.2,108.4c1.4,2,6.1-1.3,6.3-3.1.2-1.2-1.2-1.8-2.1-1.5-1.2.3-4.6,3.3-4.2,4.5h0Z"/>
  </g>
  <g>
    <path class="st0" d="M536.1,19.9c5.2,1.5,9.5,6.3,9.8,11.9,0,3.5-1.2,6.7-3.2,9.6-3.9,6.6-11.8,8.6-18.2,11.8-8.2,3.6-13.7,10.3-12,19.3.6,7.2,4.6,9.4,10.1,12.6,5.7,3.3,4.3,7.4,4.2,12.8.5,4.4,2.2,9,0,13.2-.7,1.8-2.3,3.9-1.2,5.8,2.4,3.2,8.7.4,11.6.1,1.3-.3,2.4,0,1.3,1.5-2.8,5.7-10.2,4.5-15.5,6-4.2.9-7.8,2.2-11.4,4.4-2.4,1.4-5.3,2.4-7.7,3.9-6,5-12.1,9.6-17.1,15.9-2.4,3-4,6.5-5.9,9.8-2.6,4.4-5.3,7.5-8.2,11.4-2,2.6-4.8,4.2-7.4,6.1-1.2.8-2.4,1.6-3.8,2.1-7.9,2.2-17.3,1.6-24.2-3.7-4.5-4-10.8-10.6-10.9-17.2.2-7.4,7.1-13.3,14.7-13.4,6.4-.3,12.7,3.2,18.6,1.7,2.7-.6,5.6-2.4,7.8-4.2,5.5-4.4,9.8-8.2,15.6-11.5,3.8-2.4,7.6-5.1,11-8.1,2.3-2.2,5.1-5.1,7-7.4,1-1.2,1.8-2.1.6-2.6-3-.5-5.5.4-9.6.2-3.2,0-6.5-.8-9.5-2.2-8.1-3.7-13.8-13.1-3.3-17.4,6.2-3.3,23,1.1,25-6.1.7-3.4-1.4-7.5-1.6-12.3-.3-3,.3-6.1,1.1-9,1.3-4.3,2.8-9-4.2-7.5-2.9.4-5.7,1.5-8.5,2.7-6.2,2.4-14,5.2-21,4.2-11.1-2.1-2.6-10.7,2.4-15.1,5.5-5.5,12-9.8,18.2-14.2,2.9-1.9,4.7-3.5,7.2-5.2,2.9-1.8,6.4-1.9,9.5-3.4,9.1-3.2,18.4-8.2,28.5-6.4h.3Z"/>
    <path class="st0" d="M641.3,99.6c4,1.4,7.7,2.6,11.7,4.2,2.8,1.1,6.1,1.7,8.6,3,4.3,2.5,7.4,6.1,10.2,10.1,5.6,6.7,11.8,15.2,10.4,24.6-1,4.6-4.5,8.5-5.7,13-1,3.4-.5,7.7-1.8,11.1-2.7,6.2-8.4,10.5-13,15.6-7.6,7.3-14.7,14.6-22.8,21.5-5.7,4.4-11.7,7.9-17.9,11.7-3.4,2.2-7.3,4.2-11.2,4.4-7.1.7-15.1-.4-20.8-4.9-3.2-2.6-7-4.6-10.6-6.2-2.5-.9-13.4-6.7-5.5-8,5.5-.7,11.1,1.9,16.7,3.3,6.5,2.4,13,5.6,19.5,2.5,6.6-4.1,13.9-7.8,20.4-12.5,6.1-4.9,11.4-9.9,15.3-16.6,2.6-4.2,4.8-9.5,4.5-14.6-.4-4.1-2.1-7.9-2.9-11.9-1.8-12-2-11.1-12.5-17.1-11-6.6-18.4-5.8-30.5-6-5.1,0-11.5-2.5-11.5-8.4-.3-6.6,6.2-12.1,11.9-14.2,2.7-1,5.6-1.2,8.3-1.8,5-1.4,9.3-3.6,15.3-4,4.8-.3,9.6-.5,13.9.9h.2l-.2.3Z"/>
    <path class="st0" d="M585.7,19.3c5.5,1.7,9.9,6,13.3,10.5,2.5,4.1,3.1,9.5,6.1,13.4,2.4,3.9,7.3,4.4,10.4,7.5,2.8,2.5,3.3,6.2,4,10,.9,4.8,0,9.1-1.1,14-3,8.3-7,17.9-13.4,24.4-4.4,4.3-9.3,8-13.3,12.8-3.8,4.9-6.7,10.7-10.6,15.1-4.3,4.8-9.7,8.7-14.3,13.2-4.6,4.4-8,9.3-12.6,13.6-5.8,5.5-12.2,10.2-18.5,14.9-6.2,4.3-12,10.5-19.7,12.6-9.6,2.5-18.2-.5-15-11.8,1.9-7.9,7.3-3.1,13.8-3,12,.1,20.4-8.7,29.6-15.2,4.4-3.2,9.8-6.3,13.7-9.9,3.4-3,6.6-6.5,9.7-9.7,5.8-5.6,11.3-10.8,15.7-17.9,3.6-7.2,11.7-12.4,16.4-18.6,4-6.2,6.7-13.2,9.8-19.8,2-5.7,1.3-14.1-4.1-17.3-5.9-3.4-12.9,3-18.1,6.4-5.1,3.6-8.2,9.4-11.9,14.3-2.3,3-5.7,4.9-8.5,7.5-3.7,2.9-5.8,6.9-7.8,11-2.4,3.7-8,10.4-12.6,7.6-3.2-3.2-2.7-8.6-1.2-12.5,1.4-3.4,4.3-6,6.5-9,3.4-4.5,6.4-9.4,9.5-14.2,3.1-4.5,5.2-9.8,8-14.4,2.2-3.5,4.7-6.4,6.3-10.1,2.5-5.2.6-11.1-.9-16.2-.7-2.2-1.5-4.9-.2-6.9,1.9-3.6,6.9-3.7,10.8-2.3h.2,0Z"/>
  </g>
  <g>
    <path class="st0" d="M1012.5,161.8c-2.8-10.8-16.6-19.8-26.6-21.5-8-1.8-25-3.8-30.3-3.6-5.1.6-11.3,1.2-15,5.6-5.9,6.3-13.7,10.8-22.8,8.7-4.6-.7-9.3-.5-13.4-1.5-2.1-.6-3.4-2.6-5.5-3-1.5-.2-3.7,1.2-4.2,2.8-1.6,7.4,9.4,11.3,15.5,12.1,9.4.9,21.1.9,23,12.5,1,6.2,1.6,12.9-.2,18.9-2.1,5-8.6,3.6-13.1,3.6-10.9.4-8.4-2.9-17.8-8.3-4.8-2.4-.8-17.2-4.1-22.3-5.8-10-11.4-13.5-22.2-16.1-.5-.3-.9-.5-1.1-.8,4.5-2.7,13.5-6.5,16.6-8.6,7.9-5.8,28.3-13.6,31.8-21.6,1.7-3.9-1.8-8.2-5.2-10.3-2.1-1.6-5.1-2.5-6.7-4.4-2.3-6,6.8-12.9,9.5-17.6,7.4-9.5,2.9-18.3-5.2-25.4-7.6-7.2,2.9-8.1,6.5-12.6,2.1-3.4-1.3-7.4-4.5-8.7h0c-7-3.8-12.5,4.5-19.2,4.9-6.7.2-13.5-5.1-20-1.6-3.2,1.7-6.5,4.7-4.4,7.9,2,2.2,6,2.4,7.6,5.2,1.4,2.2,1,4.3-.7,5.9-1,1-2.1,1.7-3.3,2.2-4.3-6.2-9.5-13.4-20.5-13.4s-3.8,2.4-3.8,2.4c0,0-2.9,4.2-1.2,6.5,3.7,5,12.2,3,13.5,6.6.2.7-2.3,1.4-4.2,2-.8.3-1.5.6-2.2,1.1-7.1,5.1-9.9,13-9.8,21.9,0,2.7-1.7,8-1,9.2,4.3,2.2,12.5-6.5,16.7-8.1,6.3-4,12.6-5.4,19.5-7.7,11-4.4,15.6,6.3,3,6.5-3.8,0-8.1.2-11.5,1.7-3.3,1.2-6.1,5-.9,6.1,17.4,2.1,6.5,12.5-4.8,12.8-10.7-.4-30.2,15.2-17.7,25,4.4,3.2,10.4,1.7,15.2.1,3-1,6.1-2.9,9-3.3,5.5-1.1,5.8,3.3,1.9,5.4-4.4,2.4-9,5-13,7.7l-.8.2c-3.7,3-8.3,4.9-12.1,7.6-7.7,6-14.5,12.6-21.8,19.1-5.4,4.9-10.6,10.9-14.5,16.8-2.2,3.3-7.4,6.5-4.7,10.5,3.3,3.9,12.2,4.3,15,.8,2.4-3.5,9.7-8.2,13-11.2,4.4-3.9.4-9.1,4.7-13.3,5.8-5.2,12.7-11.2,21.1-8.7,8,1.9,9.1,9.7,14.2,15.4,4.8,6.3,14.6,22.4,25.5,25.5,5.1,1.6,9.8,3.7,15.1,4.3,6.5.8,13.2-1,19.2-2.7,7.9-.7,17.6-2.2,21.3-10.5,4-8-4.2-19.6-9-26-2.6-3.9-4.1-8.3-6.5-12.2-1.3-2-3.5-3.4-4-5.5-.8-3.6,1.6-7.6,4.4-9.7,3.4-2.3,8.3-.8,12.2-.3,4.2,1,29.9,13.3,23.6,23-2.2,3.6-5.8,6.1-8.6,9.2-2.3,2.6-4.1,5.6-5.9,8.2-1.2,2.6-4.2,6-3.1,8.3,2.2,1.4,5.8-.6,8.3-1.4,8.8-3.4,16.7-6.6,25-11,9.6-4,16.9-9.1,15.2-21.1h0v-.2Z"/>
    <path class="st0" d="M813,127.3c7-10.8,6.3-25.2,4.9-36.9-.3-4.1-1.3-8.3-3.8-11.6-3-4.1-8.1-6.1-10.9-10.4-2.4-2.9-4.5-4.5-6.8-6.6-1.8-1.6-3.6-2.6-2.5-4.6,1.4-2.2,3.9-3,6.1-4.5,3.1-2.1,6.9-5.2,9.7-7.8,3.3-2.9,6-5.9,8.3-9.7,5.1-7.1,4.9-13.7-4.2-16.8h-.2c-6.1-2.2-13.1-.8-18.5,1.7-3.3,1.2-6.8,1.6-10.1,2.6-4.8,1.8-8.9,4.8-13.7,2.5-7.4-4.8-17.9-7.1-26.1-2.4-4.7,2.7-9.1,7.8-6.2,12.9,2.6,3.6,7.6,5.7,10.2,9.3,2.9,4,3.7,9.1,4.7,13.9.9,4,2.5,7.9,2.9,11.9.4,2.6,0,5.3,0,7.9,0,5.6,2.4,11.2,3.5,16.7.6,3.7.4,7.7,0,11.2-.4,2.7-1.4,5.3-1.5,8-.4,4.1.7,8,.6,12.3,0,2.3-.2,4.7-.3,7.1-.2,2.9-.2,5.7-.6,8.5-.9,5.3-3,10-4,15.2-.8,8.7-1.2,17.8-1.8,26.4.4,5.6-1.3,11.4-.9,16.7.9,4.1,5.7,7.1,9.5,8.1,4.3,1,7.6-2.4,10.3-5.4,6.8-8.3-4-17.4.4-28,1-3.9,2.8-7.5,2.8-11.4-.7-12.4-8.2-23.2-7.1-35.8.2-17.2,6.5-11,16.4-4.2,8.5,5.5,21.8,13.1,28.9,2.9h0v.3ZM775.7,45.1c4.4-5.6,15.5-8.7,22.5-6.3h0c3.2,1.3,1.1,4.5-1.2,6.5-3.7,2.7-7.5,5.1-11.3,7.9-2.3,1.7-5.6,2.8-8.3,1.4-3.3-1.8-4.2-6.6-1.9-9.4h.1ZM800.8,101.2c-1.1,3.8-3,7.8-6,10.4-6.7,5.2-19.9,7.1-24.5-1.6-3-6.4-.6-14-1-20.9,0-6.5-2.4-13.3-.9-19.3,1.1-3.9,5.2-10.6,9.7-10.2h0c2.8.9,4.5,4.2,7.6,7,6.7,5.9,11.6,13.4,14.5,22,1.5,4.3,1.9,8.2.7,12.5h0Z"/>
    <path class="st0" d="M838.6,58.9c1.7,1.3,4.6,3.1,6.5,2.1,2.8-1.8.5-7.9,1.4-11.3.8-5.2,5.2-9.1,9.8-11.6,5.6-3.6,12.3-4.6,18.6-6.1,4.6-.9,9.1-2.1,13.5-3.8,6.3-2.1,12.5-3,18.6-5.8,3.9-1.8,7.7-4.6,7.9-9.1,0-5.1-4.6-10.2-9.3-12.1h-.2c-3.4-1.4-7.6-1.5-10.8-.6-8.5,1.8-4.8,15.3-14,18.4-4,1.6-8.1,2.6-12,4.7-4.8,2.5-9.5,5.5-14,8.7-2.8,1.9-5.6,4.5-8.7,6.2-3.9,2.3-7.6,4.8-10,8.3-2.6,4-1.2,9.1,2.8,11.9h-.1Z"/>
  </g>
</svg>