<?xml version="1.0" encoding="UTF-8"?>
<svg id="_レイヤー_1" xmlns="http://www.w3.org/2000/svg" version="1.1" viewBox="0 0 303.6 923.6">
  <!-- Generator: Adobe Illustrator 29.3.1, SVG Export Plug-In . SVG Version: 2.1.0 Build 151)  -->
  <defs>
    <style>
      .st0 {
        fill: #fff;
      }
    </style>
  </defs>
  <g>
    <path class="st0" d="M100.2,2.8c3.6-.9,7.6-.3,11.3-.3,3.5,0,7.3.2,10.3,1.3,2.4.7,4.4,2.2,6,4.1,4.4,3.9,2.9,10.4-.3,14.6-2.1,2.8-6.1,3.5-9.2,4.7-2.1.6-3.7,1.6-5.6,2.4-2.1.9-4.2,1.8-6.1,3.2-3,2.4-6.4,2.9-6.3,6.4,0,1.9.7,4.4.1,6.3-.6,2.4-3.4,3.8-4.4,5.9-1.2,3.5,4.3,2,6.1,1.8,3.3-.6,7.3.4,10.1,2.5,4.3,2.5,5.1,7,4.8,11.5-.1,3.6,0,7.3.2,10.9.2,3.4.4,6.8-.5,10.2-1.1,4.4-2.4,8.9-3.3,13.2-1.8,7.8-6.4,13.7-13.9,16.5-4.2,1.7-8.8.4-13-.9-4.9-1.5-9.8-1.8-13.3-5.8-3.2-3-4.7-6.5-7.5-9.9-1.9-2.4-4.5-4.4-6-6.9-4.1-5.8.9-11,4.8-15.1,2.8-3.1,4.3-7,6.7-10.1,2.8-3.5,6-6.8,8.7-10.4,2.7-3.8,5.1-8,8.2-11.5,5.8-6.2-1.3-6.1-5.5-8.6-2.5-1.8-3.4-4.8-5.3-7.2-3.3-4.3-6.8-9.2-7.1-14.9-.1-3.1-.3-6.7,1.7-8.8,2.6-2.3,5.7,1.7,6.5,4.1,1.3,3.4,2.4,6.7,4.3,9.7,2.4,4.9,9.4,8.5,13.6,3.6,1.5-2,8.7-7.3,7.3-9.7-1.8-2.1-6.8-1.6-9.6-.7-1.6.4-4,2.1-4.5,1.7-1-1-.4-3.3,0-4.7,1.4-4.8,6.4-7.6,10.8-9.1h.1-.2ZM99.4,56.8c-2.7-1.1-5.8.5-8.3,2.1-1.9,1.3-3.7,2.4-5.2,4.3-2,2.6-3.6,5.5-5.8,7.9-3,3.3-5.6,7.1-8,10.7-1.6,2.4-3.4,4.5-5.8,5.9-1.2.8-2.7,1.6-3.8,2.3-2,1.6,2,3.3,3.2,3.9,2.2.9,4.3,2.3,6.3,3.5,2.2,1.3,3.8,3.1,5.8,4.5,1.2.8,2.5,1.6,3.8,2.3,4.8,2.6,7.8.5,11.2-3,3.6-3.4,6.5-8.5,7.7-13.3.5-2.1.3-4,1-6.4.3-1.2.8-2.4,1.1-3.6.4-1.6.7-3.2,1.1-4.8.9-3.2,2.2-6.4,1.3-9.7-.8-2.8-3.2-5.6-5.7-6.6h-.1.2Z"/>
    <path class="st0" d="M180.6,12c-.5,2.2-1.1,4.2-1.4,6.4-.5,4.1-.3,8.4-.4,12.6-.3,11.4-.1,23.6,1.8,34.7,1,7,2.4,13.9,3.6,20.8.6,4.6.4,9.2.3,13.9.1,3.6-.4,7.1-.9,10.5-.2,2.8-1.1,5.6-4,6.8-6.2,2.4-13.3,3.4-19.9,2.7-4.6-.3-9.3-2.3-11.1-6.9-1.5-3.7-1.8-7.9-4.9-10.7-2.3-2.1-4.9-3.3-7.6-5-2-1.6-14.6-6.7-10.6-9.8,2.9-1.6,7.9,1.5,10.8,2.9,2.5,1.3,5,2.4,7.6,3.3,5,1.5,10.5,5.7,15.7,4.9,2.7-.8,4.4-3.3,6.1-5.5,2.8-3.1,4.2-7.2,5.2-11.2,2.1-8.4-2.2-12.2-3-19.5-.1-2.2.2-4.8.3-7.1.2-2.4,0-4.9.1-7.3.2-3.3,1.1-6.5,1.4-9.8.7-4.4.4-8.6.6-13.1,0-3.1.4-6.9.3-9.9-.6-5.2-6.2-3.1-1.8-10.6,1.6-2.6,4-4.8,7-5.1,5.7,0,5.9,7.5,4.7,11.6h0v.4Z"/>
    <path class="st0" d="M163.1,25c-2.1,4.9-2.8,15.7-5.5,19.9-.5.9-1.2,1.7-1.9,2.6-1.1,1.4-3.2,1.2-4.1-.2-.5-.8-.9-1.6-1.1-2.6-2.6-9-1.7-18.9-5-27.7-.9-2.2-1.8-6.6-4.4-6.8h0c-2.9.9-2.1,9.7-2.8,12.5-.5,4-1.6,7.9-1.9,11.7-.2,2.4,0,4.6-.4,7-.3,2.4-.6,4.8-.9,7.1-.3,3.1.3,6.1.5,9.2v.3c0,.6,0,1.2-.2,1.7-.2.6-.7,1.1-1.2,1.4-1.6.8-3.4.9-1.7,3.1,5.1,6.2,15.7,6.1,21.7,1.5,1-.9,1.9-2,2.5-3.2h0c2.5-3.2,3.1-15.6,4.7-23.1s3.9-19.3,1.9-14.5h-.2Z"/>
  </g>
  <g>
    <path class="st0" d="M132.4,176.4c1.9,1.8,2.2,4.5,1.7,7-.2,1.6-.9,3.3-.2,4.9,1.7,2.5,6.8.6,9.5.3,4.6-.7,9.1-1.5,13.4-3.2,5.2-2.1,11.9-4.5,17.4-1.8,3,1.5,4.8,4.5,6.6,7.1,3.4,4.9,2.3,7.8-3.9,8.6-3.6.2-7.2,0-10.7-.1-4.5-.3-9.5-2.2-13.9-2.5-2.3,0-4.2.6-6.4,1.2-2.6.6-5.4,1.4-8.1,2.1-6.3,1.5-12.4,4.7-18.5,6.9-3.5,1.3-6.5,2.3-9.8,3.2-3.3,1-9.6,3.4-9.2,7.5,1,2,4.2,1,6,.4,2.9-1,5.6-3,8.1-3.6,5.4-1.6,10.5,1.3,12.6,6.6,1.8,3.8,1.4,7.6-1.5,10.5-2.3,2.5-11.4,7.5-13.5,10.4-1.5,1.9,4.4,2.3,4.1,4.5-.2,1.3-.8,2.5-1.9,3.4-1,.9-2.3,1.5-3.2,2.4-1.5,1.4-1.7,4.2-2.8,6.2-1.5,3.1-5.3,7.1-2.2,10.4,1.3,1.3,3.5,2,5.5,2.9,2.2,1,4.2,2.1,6,3.7,1.7,1.5,3.5,2.9,5.3,4.2,3.1,2.1,6.1,2.7,9.4,3.8,3.8.9,7.7,1.8,11.6,2,3.3,0,6.5.2,9.6.9,4.7,1,9.4,3.5,14,4.5,3.7.8,7.5,0,11.5.3,5.4.1,10.7.5,16.1.1,5.2-.4,10.5-2.5,14.4-5.9,2.1-1.8,4.1-5.4,6.3-6.3,1-.3,2,.7,2.3,2.2.3,2.6-.7,5.4-2.1,7.5-2.4,4.2-5.5,7.5-9.8,9.9-5,2.8-10.5,5.6-15.6,8.2-5.4,2.8-11.5,4-17.6,4.1-2.9.1-5.9.2-8.7-.6-5.1-1.4-10.2-3.5-15.2-5.4-4-1.5-8.2-3-11.7-5-5.3-2.9-9.9-7.3-14.9-10.6-2.2-1.6-4.6-2.7-6.9-4.4-5.7-3.5-9.7-9.1-15.6-11.9-1.1-.6-2.8-1-3.4-.3-1.3,1.6-1.5,4-3,5.8-1.5,1.9-3.7,3.7-5.6,5.3-4.6,3.6-8.4,6.7-13.8,9-3.3,1.3-7,1.8-10.4.6-3.2-1-5.1-4.3-8-5.8-3.3-1.7-6.6,1.1-9.9,2.2-4.2,1.6-8.6,3.2-13.1,3.8-3,.1-6.8.6-9.1-1.4-1.6-1.6-2.4-4.1-1.8-6.4.7-3.4,5.2-4.5,8.2-3.6,2.8,1.3,4.4,4,7.8,3.6,2,0,3.9-1,5.8-1.7,3.6-1.4,6.2-4.8,8.3-8,3.6-6.5,6.7-13.4,10.9-19.6,3.9-5.3,7-10,10.5-15.5,2.2-3.6,3.9-7.5,6-11.1,1.8-3.7,5.6-7,5.8-11.3,0-2.2-1.6-3.9-3.8-4.2-2.4-.3-5.2.2-6.6-2-1.3-1.7-3.2-4-3.6-6.1-.2-2.8,3.1-4.5,5.3-5.5,7.9-2.7,16.6-.8,24.7-1.4,3.7-.4,6.8-2.1,10.2-3.3,4.1-1.9,4.6-7.8,3.5-11.7-2-5.6-1.2-9.5,5.7-10.4,4-.5,8.9-.5,11.9,2.3h0ZM107.4,230.5c-1.6-.7-3.7.4-5.4.8-2.2.8-4.4,1.2-6.9,1.4-6.6.2-10.3,1.1-13.9,6.8-1.4,1.7-2.9,3.5-4.6,4.9-1.1,1-2.2,2-2.9,3.2-2.4,6.3,10.4,6.9,13.6,9.9,3.1,2,3.7,7-1.3,5.4-2.5-1-5.8-2.2-8.5-3.6-4.7-2.5-9-2.3-12.4,2-1.7,2.1-2.3,4.3-3.5,6.9-1.3,3.7-4,7.7-3.7,11.9.2,4,3.1,7.6,7.1,8.3,3.1.5,6.3-.8,9-2.3,5.1-2.9,10.8-5.9,15.2-9.9,1.8-1.7,4.5-3.5,4.4-6.2-.3-3-2.7-5.8,2-6.2,2.4-.3,5.1-.2,6.8-2,2.8-3.5,7.2-8.8,3-13.1-1.6-1.8-10.7-3.4-9.6-6.2,1.3-2.9,9.6,1.5,12.1-8.5s.4-2.8-.7-3.5h.2Z"/>
    <path class="st0" d="M164.9,211.1c1.9,1.7,1,4.4-1.5,4.8-2,.2-4.2.8-5,3.1-1,2.6-1.7,6.5.4,8.5,2.1,1.6,5.6,0,8.1-.2,5-1,8,.4,11.1,4.1,4,4.5,1.3,6.8-4.1,6.7-2.5-.1-5.3-1.6-7.7-1.6-3.8-.2-7.4,2.3-8.2,6.3-.2,3.4-1.3,9,1.5,11.4,1.7,1.5,4.3,1.5,6.5,1.8,4.2.8,8-.3,12.1-1.1,2-.4,4-.2,5.8.4,3.5,1.1,5.6,3.7,6.8,7,.7,2.2.1,4.4-1.4,6.1-1.7,2.1-3.7,3.9-5.9,5.1-1.9,1.1-4.1,1.2-6.3,1.3-2.1.2-4.2.8-6.1,1.8-1.5.8-13.5,6.1-13.9,3.5.1-1.2,1.2-2.1,2.1-3,1.3-1.2,2.7-2.4,3.5-3.9,1.3-2,.5-4.5-1.9-5.4-3.3-1.3-6.5,1.8-9.3,3.1-3.6,1.6-8.1.6-12.4.5-4.9-.2-11.4-.2-13.9-5-1.2-2.5-1-6.2,2.1-6.9,1.7-.5,4-.2,6.3-.4,2.8-.2,5.7-.8,8.1-2,1.8-.9,4.2-1.7,5.2-3.4.5-1,.3-2.1.2-3.1-.3-1.7-.7-4-1.5-5.4-1.2-2.1-3.3-1.3-5.8-1.1-2.9.4-6.5-.5-8.4-2.6-2.3-2.4-3.7-6.1-2.1-9.2,2.4-4.2,8.2-5.9,11.9-8.7,5.4-3.4,9.1-8.5,14.9-11.4,2.5-1.3,6.1-3,8.5-1.3h0l.3.2ZM141.4,233.5c1.6,2.2,6.7-1.4,7-3.5.3-1.3-1.3-2-2.3-1.6-1.3.3-5.1,3.7-4.6,5h-.1Z"/>
  </g>
  <g>
    <path class="st0" d="M111.8,453.6c5.3,1.5,9.7,6.5,10,12.1,0,3.5-1.2,6.8-3.2,9.8-4,6.8-12.1,8.7-18.6,12-8.3,3.7-13.9,10.5-12.2,19.7.6,7.3,4.7,9.6,10.3,12.8,5.8,3.3,4.4,7.6,4.3,13.1.5,4.4,2.2,9.1-.1,13.4-.7,1.9-2.3,4-1.3,5.9,2.4,3.3,8.9.4,11.8,0,1.3-.3,2.4,0,1.3,1.5-2.9,5.8-10.5,4.6-15.9,6.1-4.3.9-7.9,2.3-11.6,4.5-2.5,1.5-5.4,2.4-7.9,4-6.1,5.1-12.3,9.8-17.4,16.2-2.4,3-4.1,6.7-6,10-2.6,4.5-5.4,7.7-8.3,11.6-2.1,2.6-4.9,4.3-7.5,6.2-1.2.8-2.5,1.6-3.8,2.1-8.1,2.2-17.7,1.6-24.6-3.8-4.6-4.1-11-10.9-11.1-17.5.2-7.6,7.2-13.5,15-13.7,6.5-.3,13,3.3,19,1.7,2.8-.6,5.7-2.4,7.9-4.3,5.6-4.5,10-8.4,15.9-11.7,3.9-2.4,7.7-5.2,11.2-8.2,2.4-2.3,5.2-5.2,7.1-7.5,1-1.2,1.8-2.2.6-2.7-3.1-.5-5.6.4-9.8.3-3.3,0-6.7-.8-9.7-2.3-8.2-3.8-14.1-13.4-3.4-17.7,6.4-3.4,23.4,1.1,25.5-6.2.7-3.5-1.4-7.6-1.7-12.5-.3-3.1.3-6.2,1.1-9.2,1.3-4.4,2.8-9.2-4.3-7.7-3,.5-5.9,1.5-8.6,2.7-6.4,2.5-14.3,5.3-21.4,4.3-11.3-2.2-2.7-10.9,2.5-15.4,5.6-5.6,12.2-10,18.6-14.5,3-1.9,4.8-3.5,7.3-5.3,3-1.8,6.5-2,9.7-3.5,9.3-3.3,18.8-8.4,29.1-6.6h.2v.3Z"/>
    <path class="st0" d="M219.1,534.9c4.1,1.4,7.8,2.7,11.9,4.3,2.8,1.1,6.2,1.8,8.7,3.1,4.4,2.5,7.6,6.3,10.4,10.3,5.7,6.8,12.1,15.5,10.6,25.1-1,4.7-4.6,8.7-5.8,13.3-1,3.5-.5,7.8-1.8,11.4-2.7,6.3-8.5,10.7-13.2,15.9-7.8,7.5-15,14.9-23.2,21.9-5.8,4.5-11.9,8-18.3,12-3.4,2.3-7.5,4.3-11.5,4.5-7.2.7-15.4-.4-21.3-5-3.2-2.7-7.2-4.7-10.8-6.3-2.6-.9-13.7-6.8-5.6-8.2,5.6-.7,11.4,1.9,17,3.4,6.6,2.4,13.3,5.7,19.9,2.6,6.7-4.2,14.2-8,20.8-12.8,6.3-5,11.6-10.1,15.6-16.9,2.7-4.3,4.9-9.7,4.5-14.9-.4-4.2-2.1-8-2.9-12.1-1.9-12.3-2-11.4-12.8-17.4-11.3-6.8-18.7-5.9-31.1-6.2-5.2,0-11.7-2.6-11.8-8.6-.3-6.7,6.4-12.4,12.2-14.5,2.7-1,5.7-1.2,8.5-1.8,5.1-1.5,9.5-3.6,15.6-4.1,4.9-.3,9.8-.5,14.1.9h.3Z"/>
    <path class="st0" d="M162.4,453c5.7,1.8,10.1,6.1,13.6,10.7,2.5,4.2,3.2,9.7,6.2,13.7,2.5,3.9,7.5,4.5,10.6,7.6,2.9,2.6,3.4,6.3,4.1,10.2.9,4.9,0,9.3-1.1,14.3-3.1,8.5-7.2,18.2-13.7,24.9-4.5,4.4-9.5,8.1-13.5,13.1-3.9,5-6.8,10.9-10.8,15.4-4.4,4.9-9.9,8.9-14.6,13.5-4.7,4.5-8.2,9.5-12.9,13.8-5.9,5.6-12.4,10.4-18.9,15.2-6.4,4.4-12.3,10.7-20.1,12.9-9.8,2.5-18.6-.5-15.3-12,1.9-8,7.5-3.2,14.1-3,12.3,0,20.8-8.9,30.2-15.6,4.5-3.3,10.1-6.4,14-10.1,3.5-3,6.8-6.6,9.9-9.9,5.9-5.7,11.6-11,16-18.2,3.7-7.4,12-12.7,16.8-18.9,4.1-6.4,6.9-13.5,10-20.2,2.1-5.8,1.4-14.3-4.2-17.7-6-3.5-13.2,3-18.4,6.5-5.2,3.7-8.4,9.6-12.1,14.6-2.3,3-5.9,5-8.6,7.6-3.8,3-5.9,7-8,11.3-2.4,3.8-8.1,10.6-12.8,7.8-3.2-3.2-2.7-8.7-1.3-12.8,1.4-3.5,4.4-6.1,6.6-9.1,3.5-4.6,6.5-9.6,9.7-14.5,3.1-4.6,5.3-10,8.1-14.7,2.3-3.6,4.8-6.5,6.4-10.2,2.5-5.3.6-11.3-.9-16.6-.7-2.3-1.5-5-.2-7,1.9-3.7,7-3.8,11-2.4h.2v-.2Z"/>
  </g>
  <g>
    <path class="st0" d="M303.2,869.4c-2.9-11.3-17.4-20.7-27.9-22.5-8.4-1.9-26.2-4-31.7-3.8-5.4.7-11.9,1.2-15.7,5.9-6.2,6.6-14.3,11.3-23.9,9.1-4.8-.8-9.7-.5-14.1-1.6-2.2-.7-3.6-2.7-5.7-3.1-1.6-.3-3.8,1.2-4.4,3-1.6,7.8,9.8,11.8,16.2,12.7,9.9,1,22.1.9,24.1,13.1,1,6.5,1.6,13.5-.2,19.8-2.2,5.2-9,3.8-13.7,3.7-11.4.4-8.9-3-18.7-8.7-5.1-2.5-.9-18-4.3-23.3-6.1-10.5-11.9-14.1-23.3-16.9-.5-.3-.9-.6-1.1-.9,4.7-2.8,14.1-6.8,17.4-9,8.2-6.1,29.6-14.3,33.3-22.6,1.8-4.1-1.9-8.6-5.4-10.8-2.2-1.7-5.3-2.7-7-4.6-2.4-6.2,7.1-13.6,9.9-18.4,7.7-10,3-19.2-5.4-26.6-7.9-7.6,3.1-8.5,6.8-13.2,2.2-3.5-1.4-7.8-4.7-9.1h-.1c-7.4-4-13.1,4.8-20.1,5.1-7,.2-14.1-5.3-21-1.7-3.3,1.8-6.8,4.9-4.6,8.2,2.1,2.3,6.3,2.5,7.9,5.5,1.4,2.3,1,4.5-.8,6.2-1,1-2.2,1.8-3.5,2.3-4.5-6.5-10-14.1-21.5-14.1s-4,2.5-4,2.5c0,0-3.1,4.4-1.3,6.8,3.9,5.2,12.8,3.2,14.2,6.9.2.7-2.5,1.5-4.4,2.1-.8.3-1.6.6-2.3,1.1-7.4,5.3-10.4,13.7-10.2,23-.1,2.9-1.8,8.4-1,9.6,4.5,2.3,13.1-6.8,17.5-8.5,6.6-4.2,13.2-5.7,20.5-8.1,11.5-4.6,16.4,6.6,3.1,6.8-4,0-8.5.2-12.1,1.7-3.5,1.2-6.4,5.3-.9,6.3,18.2,2.2,6.8,13.1-5,13.4-11.2-.4-31.6,15.9-18.5,26.2,4.6,3.4,10.9,1.8,16,0,3.1-1,6.4-3,9.5-3.5,5.8-1.1,6.1,3.4,2,5.7-4.6,2.5-9.4,5.3-13.6,8l-.8.2c-3.9,3.1-8.6,5.2-12.7,8-8.1,6.3-15.1,13.2-22.9,20-5.7,5.1-11.1,11.4-15.2,17.6-2.3,3.5-7.7,6.8-4.9,11.1,3.4,4,12.8,4.5,15.7.8,2.6-3.7,10.1-8.6,13.6-11.8,4.6-4.1.4-9.5,5-13.9,6.1-5.5,13.3-11.7,22.1-9.1,8.4,2,9.5,10.1,14.8,16.1,5,6.6,15.3,23.4,26.7,26.7,5.4,1.6,10.3,3.8,15.8,4.5,6.9.8,13.9-1,20.1-2.9,8.3-.8,18.4-2.3,22.4-11,4.2-8.4-4.5-20.5-9.4-27.3-2.7-4.1-4.3-8.7-6.8-12.7-1.4-2.1-3.7-3.5-4.2-5.8-.9-3.8,1.6-7.9,4.6-10.2,3.6-2.4,8.7-.9,12.8-.3,4.4,1,31.4,13.9,24.7,24.1-2.3,3.8-6,6.4-9,9.7-2.4,2.8-4.3,5.9-6.2,8.6-1.3,2.8-4.4,6.2-3.2,8.7,2.3,1.4,6.1-.6,8.7-1.4,9.3-3.6,17.5-6.9,26.2-11.5,10-4.2,17.7-9.6,15.9-22.1h0Z"/>
    <path class="st0" d="M94.3,833.2c7.3-11.3,6.6-26.4,5.1-38.6-.4-4.3-1.4-8.7-4-12.2-3.1-4.3-8.5-6.4-11.4-10.9-2.5-3.1-4.7-4.7-7.1-6.9-1.9-1.7-3.8-2.7-2.7-4.9,1.5-2.3,4.1-3.1,6.4-4.7,3.2-2.2,7.2-5.4,10.1-8.1,3.5-3,6.3-6.2,8.7-10.1,5.3-7.4,5.1-14.4-4.4-17.5h-.2c-6.4-2.3-13.7-.8-19.4,1.8-3.4,1.2-7.1,1.7-10.6,2.8-5,1.8-9.3,5-14.3,2.6-7.8-5-18.8-7.5-27.3-2.6-4.9,2.8-9.5,8.1-6.5,13.5,2.8,3.8,8,6,10.7,9.7,3.1,4.2,3.9,9.5,4.9,14.5.9,4.1,2.6,8.2,3,12.5.4,2.8,0,5.5,0,8.3,0,5.9,2.5,11.7,3.6,17.5.6,3.9.4,8.1.1,11.7-.4,2.8-1.5,5.5-1.5,8.4-.5,4.3.8,8.4.6,12.9,0,2.4-.2,4.9-.3,7.5-.2,3-.2,6-.6,8.9-.9,5.5-3.2,10.5-4.2,15.9-.8,9.1-1.2,18.6-1.9,27.6.4,5.9-1.4,12-1,17.5,1,4.3,6,7.4,9.9,8.5,4.5,1,8-2.5,10.8-5.7,7.1-8.7-4.2-18.2.4-29.3,1.1-4.1,2.9-7.9,2.9-11.9-.7-13-8.6-24.3-7.5-37.5.2-18,6.9-11.5,17.2-4.4,8.9,5.7,22.9,13.7,30.3,3h0l.2.2ZM55.2,747.1c4.6-5.8,16.3-9.1,23.6-6.6h.1c3.3,1.4,1.1,4.7-1.2,6.8-3.9,2.8-7.8,5.3-11.8,8.2-2.4,1.7-5.9,3-8.7,1.5-3.4-1.8-4.4-6.9-1.9-9.9h-.1ZM81.5,805.9c-1.1,4-3.1,8.1-6.3,10.9-7,5.5-20.9,7.4-25.7-1.7-3.2-6.7-.6-14.7-1.1-21.8.1-6.8-2.5-14-1-20.2,1.1-4.1,5.5-11.1,10.2-10.7h.1c3,.9,4.7,4.4,7.9,7.3,7,6.2,12.1,14,15.2,23.1,1.5,4.5,2,8.6.7,13.1h0Z"/>
    <path class="st0" d="M121.1,761.6c1.7,1.4,4.8,3.3,6.8,2.2,2.9-1.9.6-8.3,1.4-11.8.8-5.5,5.5-9.5,10.2-12.2,5.9-3.7,12.9-4.9,19.5-6.4,4.8-1,9.5-2.2,14.1-3.9,6.6-2.2,13.1-3.2,19.5-6,4.1-1.9,8.1-4.8,8.2-9.5,0-5.4-4.8-10.6-9.8-12.7h-.2c-3.5-1.5-8-1.5-11.3-.7-8.9,1.8-5,16.1-14.7,19.3-4.2,1.7-8.5,2.7-12.6,5-5,2.7-10,5.8-14.7,9.1-2.9,2-5.9,4.7-9.1,6.5-4.1,2.4-8,5-10.5,8.7-2.8,4.2-1.3,9.5,2.9,12.4h.3Z"/>
  </g>
</svg>